<svg height="512pt" viewBox="0 -22 512.00353 512" width="512pt" xmlns="http://www.w3.org/2000/svg"><path d="m338.8125 103.007812h-23.226562c-4.183594 0-7.574219 3.390626-7.574219 7.574219 0 4.183594 3.390625 7.574219 7.574219 7.574219h23.226562c18.097656 0 32.820312 14.722656 32.820312 32.820312v105.253907l-57.449218-64.832031c-1.433594-1.621094-3.5-2.550782-5.667969-2.550782s-4.230469.925782-5.667969 2.550782l-65.550781 73.976562-36.730469-34.109375c-2.933594-2.722656-7.476562-2.695313-10.375.0625l-49.816406 47.40625v-127.757813c0-18.097656 14.722656-32.820312 32.820312-32.820312h107.046876c4.179687 0 7.570312-3.390625 7.570312-7.574219 0-4.183593-3.390625-7.574219-7.570312-7.574219h-107.046876c-26.449218 0-47.96875 21.519532-47.96875 47.96875v165.617188c0 26.449219 21.519532 47.96875 47.96875 47.96875h165.617188c26.449219 0 47.96875-21.519531 47.96875-47.96875v-165.617188c0-26.449218-21.519531-47.96875-47.96875-47.96875zm32.820312 213.585938c0 18.097656-14.722656 32.820312-32.820312 32.820312h-165.617188c-18.097656 0-32.820312-14.722656-32.820312-32.820312v-16.949219l55.097656-52.433593 37.199219 34.539062c1.496094 1.390625 3.492187 2.109375 5.523437 2.015625 2.035157-.097656 3.945313-1.015625 5.296876-2.542969l65.023437-73.382812 63.117187 71.234375zm0 0"/><path d="m159.5625 165.113281c0 15.316407 12.457031 27.773438 27.769531 27.773438s27.769531-12.457031 27.769531-27.773438c0-15.3125-12.457031-27.769531-27.769531-27.769531s-27.769531 12.457031-27.769531 27.769531zm40.394531 0c0 6.960938-5.664062 12.625-12.625 12.625-6.957031 0-12.621093-5.664062-12.621093-12.625 0-6.957031 5.664062-12.621093 12.621093-12.621093 6.960938 0 12.625 5.664062 12.625 12.621093zm0 0"/><path d="m511.082031 130.191406c-1.324219-2.4375-3.878906-3.957031-6.652343-3.957031h-18.683594v-45.949219c0-44.269531-36.015625-80.285156-80.28125-80.285156h-38.375c-4.183594 0-7.574219 3.394531-7.574219 7.574219 0 4.183593 3.390625 7.574219 7.574219 7.574219h38.375c35.914062 0 65.132812 29.222656 65.132812 65.136718v53.523438c0 4.183594 3.394532 7.574218 7.574219 7.574218h12.324219l-32.519532 50.195313-32.523437-50.195313h12.324219c4.183594 0 7.574218-3.390624 7.574218-7.574218v-45.441406c0-26.453126-21.519531-47.96875-47.96875-47.96875h-133.804687v-25.246094h68.164063c4.183593 0 7.574218-3.394532 7.574218-7.574219 0-4.183594-3.390625-7.57421875-7.574218-7.57421875h-75.738282c-4.183594 0-7.574218 3.39062475-7.574218 7.57421875v40.394531c0 4.179688 3.390624 7.570313 7.574218 7.570313h141.378906c18.097657 0 32.824219 14.726562 32.824219 32.824219v37.867187h-18.683593c-2.777344 0-5.328126 1.519531-6.652344 3.957031-1.328125 2.4375-1.210938 5.40625.296875 7.738282l46.453125 71.699218c1.394531 2.15625 3.789062 3.457032 6.355468 3.457032 2.570313 0 4.960938-1.300782 6.359376-3.457032l46.453124-71.699218c1.503907-2.332032 1.621094-5.300782.292969-7.738282zm0 0"/><path d="m256.003906 412.027344h-141.382812c-18.097656 0-32.820313-14.722656-32.820313-32.820313v-37.871093h18.683594c2.773437 0 5.328125-1.519532 6.652344-3.957032s1.210937-5.40625-.296875-7.734375l-46.453125-71.703125c-1.398438-2.152344-3.789063-3.453125-6.359375-3.453125-2.566406 0-4.960938 1.300781-6.355469 3.453125l-46.453125 71.703125c-1.511719 2.328125-1.625 5.296875-.300781 7.734375 1.328125 2.4375 3.878906 3.957032 6.65625 3.957032h18.679687v45.949218c0 44.269532 36.015625 80.285156 80.285156 80.285156h33.324219c4.183594 0 7.574219-3.390624 7.574219-7.574218s-3.390625-7.574219-7.574219-7.574219h-33.320312c-35.914063 0-65.136719-29.222656-65.136719-65.136719v-53.523437c0-4.183594-3.390625-7.574219-7.574219-7.574219h-12.324219l32.523438-50.195312 32.523438 50.195312h-12.328126c-4.179687 0-7.570312 3.390625-7.570312 7.574219v45.445312c0 26.449219 21.515625 47.964844 47.964844 47.964844h133.808594v25.25h-73.214844c-4.183594 0-7.574219 3.390625-7.574219 7.574219s3.390625 7.574218 7.574219 7.574218h80.789062c4.183594 0 7.574219-3.390624 7.574219-7.574218v-40.394532c0-4.183593-3.390625-7.574218-7.574219-7.574218zm0 0"/></svg>